<?xml version="1.0" encoding="UTF-8"?>
<svg id="Capa_1" data-name="Capa 1" xmlns="http://www.w3.org/2000/svg" viewBox="0 0 1080 1080">
  <defs>
    <style>
      .cls-1 {
        fill: #0c0c0c;
        stroke-width: 0px;
      }
    </style>
  </defs>
  <g>
    <path class="cls-1" d="m455.98,421.83l-27.68-12.55v96.03h-17.13l-6.48,5.6v-46.32h-18.89v-32.36h-33.8v45.12h-33.12l24.32,95.01c3.61-.71,7.32-1.39,11.11-2.05,3.25-.57,6.57-1.12,9.95-1.66,4.07-.65,8.23-1.27,12.48-1.88,3.84-.54,7.75-1.07,11.74-1.57,7.38-.94,15-1.81,22.84-2.61,7.32-.75,14.85-1.44,22.53-2.06,7.23-.59,14.6-1.12,22.12-1.58,9.72-.6,19.67-1.1,29.8-1.49l-2.69-123.31-27.11-12.3Z"/>
    <path class="cls-1" d="m749.48,477.35h-21.48v-45.12h-33.8v32.36h-18.89v46.32l-6.48-5.6h-17.13v-96.03l-27.68,12.55-27.11,12.3-2.69,123.31c10.14.39,20.08.88,29.8,1.49,7.51.46,14.89,1,22.12,1.58,7.69.62,15.21,1.3,22.53,2.06,7.84.8,15.46,1.67,22.84,2.61,3.99.5,7.9,1.03,11.74,1.57,4.26.61,8.41,1.23,12.48,1.88,3.38.54,6.7,1.09,9.95,1.66,3.8.66,7.5,1.34,11.11,2.05l24.32-95.01h-11.64Z"/>
    <path class="cls-1" d="m540.57,344.01l-.2.07-.22-.07h-.01v.15l-42.71,14.44v198.68c14.05-.5,28.46-.78,43.14-.84h0c1.9,0,3.81-.02,5.71-.02,12.55,0,24.9.17,37.01.48v-198.3l-42.73-14.45v-.14Z"/>
  </g>
  <g>
    <path class="cls-1" d="m165.67,734.29v-109.9h57.17c8.99,0,16.35,1.65,22.1,4.95,5.74,3.3,10.04,7.88,12.88,13.74,2.84,5.86,4.27,12.66,4.27,20.39s-1.85,13.91-5.55,19.54c-3.7,5.63-8.62,9.93-14.76,12.89,1.25,1.02,2.33,2.25,3.24,3.67.91,1.42,1.93,3.39,3.07,5.89l12.63,28.84h-33.45l-11.61-26.45c-.91-2.05-2.02-3.5-3.33-4.35-1.31-.85-3.16-1.28-5.55-1.28h-9.05v32.08h-32.08Zm32.08-56.66h16.89c4.66,0,8.28-1.22,10.84-3.67,2.56-2.45,3.84-5.94,3.84-10.5,0-9.67-4.55-14.51-13.65-14.51h-17.92v28.67Z"/>
    <path class="cls-1" d="m272.33,734.29v-109.9h83.28v24.57h-51.2v17.92h44.88v24.91h-44.88v17.92h51.2v24.57h-83.28Z"/>
    <path class="cls-1" d="m400.32,734.29v-40.28l-39.59-69.63h33.45l22.18,41.47,22.19-41.47h33.45l-39.59,69.63v40.28h-32.08Z"/>
    <path class="cls-1" d="m478.82,734.29v-109.9h27.31l41.47,58.19v-58.19h32.08v109.9h-27.48l-41.3-58.02v58.02h-32.08Z"/>
    <path class="cls-1" d="m646.06,735.99c-18.2,0-32.11-4.44-41.73-13.31-9.61-8.87-14.42-23.21-14.42-43.01,0-13.65,2.16-24.66,6.48-33.02,4.32-8.36,10.67-14.45,19.03-18.26,8.36-3.81,18.57-5.72,30.63-5.72s22.27,1.91,30.63,5.72c8.36,3.81,14.7,9.9,19.03,18.26,4.32,8.36,6.48,19.37,6.48,33.02,0,19.8-4.84,34.13-14.51,43.01-9.67,8.87-23.55,13.31-41.64,13.31Zm0-27.3c8.19,0,14.14-2.3,17.83-6.91,3.7-4.61,5.55-11.97,5.55-22.1,0-10.81-1.85-18.46-5.55-22.95-3.7-4.49-9.64-6.74-17.83-6.74s-14.14,2.25-17.83,6.74c-3.7,4.5-5.55,12.14-5.55,22.95,0,10.13,1.85,17.49,5.55,22.1,3.7,4.61,9.64,6.91,17.83,6.91Z"/>
    <path class="cls-1" d="m748.46,735.99c-7.4,0-14.39-.6-20.99-1.79-6.6-1.19-12.23-2.87-16.89-5.03v-26.45c5.12,2.39,10.81,4.33,17.07,5.8,6.26,1.48,12.12,2.22,17.58,2.22s9.98-.48,12.89-1.45c2.9-.97,4.35-3.16,4.35-6.57,0-2.39-.83-4.27-2.47-5.63-1.65-1.37-4.21-2.62-7.68-3.76-3.47-1.14-7.99-2.56-13.57-4.27-7.4-2.39-13.25-5.01-17.58-7.85-4.33-2.84-7.42-6.31-9.3-10.41-1.88-4.1-2.82-9.1-2.82-15.02,0-10.81,3.84-19.03,11.52-24.66,7.68-5.63,19.08-8.45,34.22-8.45,6.03,0,12.26.51,18.69,1.54,6.43,1.02,11.63,2.16,15.62,3.41v26.62c-5.35-2.16-10.47-3.7-15.36-4.61-4.89-.91-9.5-1.37-13.82-1.37-5.01,0-9.27.4-12.8,1.19-3.53.8-5.29,2.85-5.29,6.14,0,2.85,1.51,4.92,4.52,6.23,3.01,1.31,8.39,2.99,16.13,5.03,8.99,2.39,15.84,5.29,20.56,8.7,4.72,3.41,7.94,7.37,9.64,11.86,1.71,4.5,2.56,9.59,2.56,15.27,0,10.01-3.87,18.06-11.6,24.15-7.74,6.09-19.45,9.13-35.16,9.13Z"/>
    <path class="cls-1" d="m858.19,735.99c-18.2,0-32.11-4.44-41.73-13.31-9.61-8.87-14.42-23.21-14.42-43.01,0-13.65,2.16-24.66,6.48-33.02,4.32-8.36,10.67-14.45,19.03-18.26,8.36-3.81,18.57-5.72,30.63-5.72s22.27,1.91,30.63,5.72c8.36,3.81,14.7,9.9,19.03,18.26,4.32,8.36,6.48,19.37,6.48,33.02,0,19.8-4.84,34.13-14.51,43.01-9.67,8.87-23.55,13.31-41.64,13.31Zm0-27.3c8.19,0,14.14-2.3,17.83-6.91,3.7-4.61,5.55-11.97,5.55-22.1,0-10.81-1.85-18.46-5.55-22.95-3.7-4.49-9.64-6.74-17.83-6.74s-14.14,2.25-17.83,6.74c-3.7,4.5-5.55,12.14-5.55,22.95,0,10.13,1.85,17.49,5.55,22.1,3.7,4.61,9.64,6.91,17.83,6.91Z"/>
  </g>
</svg>